<svg width="230" height="225" viewBox="0 0 230 225" fill="none" xmlns="http://www.w3.org/2000/svg">
<path d="M171.822 52.1328C152.207 34.9927 125.656 52.1328 99.8604 88.202C74.0646 124.271 61.7987 109.091 39.8701 124.989C17.9415 140.886 12.0763 206.008 89.3353 199.677C166.594 193.346 223.098 96.8791 171.822 52.1328Z" fill="#F0F0F0"/>
<path d="M195.642 224.471C195.642 224.546 158.448 224.61 112.582 224.61C66.7158 224.61 29.5057 224.546 29.5057 224.471C29.5057 224.396 66.6944 224.332 112.582 224.332C158.469 224.332 195.642 224.401 195.642 224.471Z" fill="#263238"/>
<path d="M159.401 158.899C151.125 153.12 149.251 142.391 149.577 132.745C149.631 131.138 149.454 129.435 150.22 128.026C150.986 126.617 152.775 125.648 154.216 126.323C155.41 126.885 155.93 128.278 156.6 129.429C157.493 130.963 158.802 132.213 160.376 133.034C161.399 133.57 162.668 133.891 163.681 133.334C165.073 132.568 165.234 130.656 165.223 129.049C165.223 126.06 165.205 123.075 165.17 120.093C165.073 118.492 165.236 116.886 165.652 115.337C166.15 113.816 167.258 112.407 168.774 111.978C170.29 111.55 172.181 112.434 172.524 113.998C172.583 114.66 172.599 115.326 172.572 115.99C172.615 116.66 172.925 117.394 173.552 117.597C174.179 117.801 174.832 117.335 175.314 116.863C176.964 115.257 178.089 113.162 179.133 111.095C180.178 109.027 181.201 106.901 182.701 105.138C184.2 103.376 186.273 101.978 188.593 101.844C190.912 101.71 193.328 103.135 193.906 105.385C194.484 107.635 193.172 109.932 191.763 111.759C189.638 114.47 187.132 116.86 184.324 118.856C183.775 119.155 183.338 119.623 183.076 120.19C182.727 121.261 183.74 122.332 184.795 122.67C185.989 123.066 187.286 122.943 188.544 123.093C189.803 123.243 191.142 123.789 191.619 124.967C192.272 126.606 190.901 128.32 189.557 129.445C186.857 131.695 183.792 133.465 180.494 134.678C179.315 135.107 178.078 135.487 177.125 136.312C176.171 137.137 175.604 138.578 176.177 139.708C176.75 140.838 178.223 141.197 179.46 140.967C180.697 140.736 181.795 140.072 182.974 139.628C185.175 138.797 188.014 138.947 189.401 140.849C189.831 141.504 190.103 142.25 190.196 143.027C190.289 143.805 190.2 144.594 189.937 145.332C189.401 146.8 188.576 148.146 187.511 149.29C184.002 153.482 179.444 156.667 174.302 158.519C169.197 160.287 164.468 160.769 159.395 158.91" fill="#1B7694"/>
<path d="M191.549 103.167C191.549 103.167 191.501 103.221 191.394 103.317L190.917 103.74C190.499 104.115 189.883 104.662 189.107 105.385C186.905 107.429 184.86 109.637 182.99 111.989C181.795 113.473 180.558 115.155 179.24 116.981C177.923 118.808 176.562 120.779 175.212 122.873C173.773 125.082 172.456 127.367 171.265 129.718C170.644 130.945 170.097 132.225 169.535 133.532L167.874 137.523C165.686 142.549 163.779 147.694 162.165 152.933C160.864 157.219 159.967 161.618 159.486 166.072C159.175 169.077 159.125 172.104 159.336 175.118C159.422 176.19 159.502 177.009 159.577 177.566C159.61 177.834 159.631 178.048 159.652 178.204V178.423C159.629 178.353 159.613 178.282 159.604 178.209C159.577 178.054 159.545 177.845 159.502 177.577C159.406 177.041 159.304 176.195 159.208 175.124C158.949 172.104 158.967 169.067 159.261 166.05C159.712 161.577 160.589 157.158 161.881 152.852C163.482 147.599 165.383 142.441 167.574 137.405L169.278 133.43C169.84 132.129 170.392 130.838 171.018 129.606C172.217 127.247 173.546 124.957 174.998 122.745C176.369 120.602 177.751 118.663 179.053 116.853C180.354 115.042 181.613 113.35 182.802 111.871C184.691 109.525 186.764 107.333 189 105.315C189.792 104.603 190.424 104.067 190.853 103.708L191.351 103.307C191.412 103.253 191.478 103.207 191.549 103.167Z" fill="#263238"/>
<path d="M171.088 129.595C171.013 129.375 170.961 129.147 170.933 128.915C170.847 128.471 170.751 127.844 170.638 127.03C170.408 125.423 170.172 123.221 169.921 120.784C169.669 118.347 169.385 116.14 169.149 114.55C169.026 113.757 168.919 113.119 168.844 112.675C168.785 112.447 168.755 112.213 168.753 111.979C168.845 112.193 168.912 112.418 168.951 112.648C169.069 113.087 169.203 113.719 169.353 114.517C169.658 116.124 169.958 118.31 170.21 120.752C170.462 123.195 170.676 125.337 170.842 127.003C170.922 127.753 170.992 128.39 171.045 128.899C171.087 129.129 171.101 129.362 171.088 129.595Z" fill="#263238"/>
<path d="M191.699 125.75C191.439 125.806 191.173 125.839 190.906 125.846C190.371 125.894 189.61 125.958 188.668 126.066C186.782 126.269 184.19 126.644 181.345 127.18C178.501 127.715 175.946 128.321 174.109 128.787C173.193 129.022 172.454 129.236 171.967 129.381C171.706 129.474 171.437 129.538 171.163 129.574C171.411 129.449 171.669 129.347 171.934 129.269C172.438 129.092 173.166 128.845 174.077 128.583C175.904 128.047 178.458 127.41 181.313 126.864C183.732 126.401 186.172 126.062 188.625 125.846C189.573 125.766 190.339 125.733 190.874 125.723C191.149 125.704 191.426 125.713 191.699 125.75Z" fill="#263238"/>
<path d="M162.143 152.477C162.086 152.4 162.039 152.315 162.004 152.225L161.651 151.481C161.345 150.833 160.933 149.874 160.44 148.701C159.444 146.344 158.174 143.045 156.825 139.381C155.475 135.717 154.232 132.418 153.289 130.034C152.829 128.877 152.448 127.929 152.165 127.222L151.865 126.456C151.823 126.368 151.794 126.274 151.779 126.178C151.836 126.255 151.883 126.34 151.918 126.43L152.272 127.174C152.572 127.822 152.989 128.781 153.482 129.954C154.478 132.311 155.748 135.61 157.098 139.274C158.447 142.938 159.69 146.237 160.633 148.621C161.094 149.778 161.474 150.726 161.752 151.433C161.876 151.738 161.977 151.968 162.058 152.199C162.099 152.287 162.128 152.381 162.143 152.477Z" fill="#263238"/>
<path d="M189.503 143.656C189.417 143.705 189.326 143.743 189.23 143.768L188.437 144.036L185.507 144.984C183.033 145.787 179.615 146.934 175.866 148.198C172.117 149.462 168.683 150.587 166.193 151.337C164.95 151.717 163.938 152.006 163.236 152.199L162.427 152.408C162.333 152.438 162.236 152.457 162.138 152.467C162.224 152.417 162.316 152.38 162.411 152.354L163.204 152.086L166.134 151.138C168.608 150.335 172.026 149.189 175.775 147.925C179.524 146.661 182.952 145.536 185.443 144.786C186.691 144.406 187.698 144.116 188.405 143.923L189.214 143.715C189.308 143.685 189.405 143.665 189.503 143.656Z" fill="#263238"/>
<path d="M178.341 13.7281L175.582 14.7137L174.398 11.1089C172.224 4.46178 165.293 0.931991 158.924 3.17627C152.556 5.42055 149.165 12.7105 151.34 19.3576L152.523 22.9624L149.754 23.9533C148.698 24.3629 147.841 25.1636 147.36 26.1891C146.879 27.2145 146.812 28.3859 147.172 29.4596L154.848 52.9147C155.007 53.4462 155.272 53.9403 155.626 54.3675C155.98 54.7948 156.416 55.1466 156.909 55.4019C157.402 55.6572 157.941 55.8109 158.494 55.8538C159.047 55.8967 159.603 55.828 160.129 55.6518L188.716 45.4266C189.786 45.0178 190.655 44.2099 191.142 43.173C191.628 42.1361 191.694 40.951 191.324 39.8668L183.643 16.4116C183.48 15.8816 183.211 15.3899 182.854 14.966C182.496 14.542 182.057 14.1944 181.562 13.944C181.067 13.6935 180.527 13.5453 179.973 13.5083C179.42 13.4712 178.865 13.546 178.341 13.7281ZM156.551 17.4775C155.965 15.7492 156.07 13.861 156.845 12.2085C157.62 10.556 159.004 9.2675 160.708 8.6129C161.549 8.32507 162.44 8.20965 163.326 8.27352C164.213 8.33739 165.078 8.57925 165.87 8.98466C166.661 9.39008 167.362 9.95074 167.932 10.6332C168.502 11.3156 168.929 12.1059 169.187 12.9568L170.365 16.5616L157.73 21.0823L156.551 17.4775ZM172.62 38.2921L174.581 44.2804C174.617 44.4004 174.605 44.5298 174.548 44.6415C174.491 44.7532 174.394 44.8387 174.275 44.8803L171.527 45.8605C171.418 45.8908 171.301 45.8776 171.201 45.8237C171.102 45.7698 171.026 45.6793 170.992 45.5712L169.015 39.6097C167.926 39.5503 166.88 39.1594 166.018 38.4893C165.157 37.8193 164.521 36.902 164.195 35.8603C163.729 34.4832 163.814 32.9792 164.432 31.6633C165.05 30.3474 166.153 29.3216 167.51 28.8007C168.18 28.5718 168.89 28.4801 169.596 28.5311C170.302 28.5821 170.991 28.7748 171.622 29.0977C172.252 29.4206 172.811 29.867 173.265 30.4105C173.719 30.9539 174.059 31.5832 174.265 32.2609C174.609 33.319 174.638 34.4547 174.347 35.5289C174.055 36.603 173.457 37.5688 172.625 38.3081L172.62 38.2921Z" fill="#263238"/>
<path d="M175.459 14.6494C175.459 14.7244 170.344 16.6473 163.98 18.9344C157.617 21.2215 152.427 23.0587 152.4 23.0052C152.373 22.9516 157.515 21.0126 163.884 18.7201C170.253 16.4277 175.432 14.5797 175.459 14.6494Z" fill="#263238"/>
<path d="M181.533 15.635C181.557 15.6815 181.576 15.7299 181.592 15.7796C181.635 15.8868 181.683 16.026 181.747 16.1974C181.887 16.5884 182.079 17.1294 182.32 17.8043L184.377 23.7926C185.234 26.3315 186.257 29.3417 187.393 32.6841C187.928 34.3606 188.56 36.1067 189.15 37.9439C189.465 38.8907 189.601 39.8879 189.551 40.8845C189.506 41.4028 189.358 41.9071 189.118 42.3682C188.86 42.8278 188.516 43.2334 188.105 43.5627C187.278 44.1667 186.359 44.635 185.384 44.9499L182.626 45.9409L177.403 47.8102L168.56 50.9597L162.588 53.0593L160.981 53.595L160.552 53.7342C160.507 53.7546 160.458 53.7673 160.408 53.7717C160.408 53.7717 160.451 53.7717 160.542 53.7075L160.96 53.5414L162.566 52.9362L168.507 50.7508L177.334 47.537L182.545 45.6516L185.304 44.6553C186.251 44.3532 187.143 43.8992 187.944 43.3109C188.327 43.0054 188.647 42.6289 188.887 42.2022C189.114 41.7757 189.251 41.3071 189.289 40.8256C189.338 39.8653 189.207 38.9043 188.903 37.9921C188.325 36.171 187.714 34.4088 187.162 32.7323C186.048 29.3846 185.02 26.3636 184.206 23.8248C183.392 21.2859 182.706 19.2451 182.235 17.8097C182.01 17.108 181.838 16.5616 181.699 16.1653L181.571 15.7368C181.554 15.7043 181.542 15.6702 181.533 15.635Z" fill="#263238"/>
<path d="M166.45 8.24869C166.45 8.24869 166.166 8.10943 165.641 7.89518C164.893 7.60769 164.101 7.44834 163.3 7.42382C162.113 7.3831 160.931 7.60629 159.84 8.07729C158.513 8.66379 157.379 9.61244 156.567 10.8144C155.75 12.0128 155.311 13.4291 155.309 14.8798C155.32 16.0687 155.5 17.25 155.844 18.3881C156.123 19.363 156.412 20.1396 156.605 20.6806C156.719 20.9554 156.812 21.2383 156.883 21.5269C156.731 21.27 156.604 20.9992 156.503 20.7181C156.283 20.1825 155.967 19.4219 155.657 18.4417C155.275 17.2916 155.068 16.0911 155.041 14.8798C155.026 13.3743 155.475 11.9009 156.326 10.659C157.166 9.4132 158.347 8.43522 159.727 7.84161C160.852 7.36803 162.071 7.15912 163.289 7.231C164.108 7.27271 164.912 7.4633 165.662 7.79341C165.863 7.88594 166.056 7.99337 166.241 8.11478C166.317 8.14826 166.387 8.19344 166.45 8.24869Z" fill="#263238"/>
<path d="M166.696 29.2077C166.782 29.1559 166.871 29.1111 166.964 29.0738C167.232 28.9528 167.51 28.8543 167.794 28.7792C168.246 28.646 168.711 28.5668 169.182 28.5435C169.821 28.5092 170.461 28.6058 171.062 28.8274C172.433 29.3095 173.691 30.7075 174.313 32.5768C174.611 33.58 174.611 34.6481 174.313 35.6513C173.982 36.7401 173.39 37.7314 172.588 38.5383L172.62 38.3937C173.333 40.3488 174.109 42.4699 174.913 44.682L174.961 44.8159L174.827 44.8641L173.6 45.2712L170.922 46.1657L170.788 46.2085L170.746 46.0746C170.012 43.8571 169.208 41.7896 168.603 39.7596L168.721 39.8506C167.674 39.7637 166.675 39.3706 165.85 38.7205C165.103 38.1453 164.491 37.4141 164.056 36.5779C163.663 35.8364 163.467 35.0064 163.488 34.1676C163.513 33.3103 163.727 32.4691 164.115 31.7042C164.503 30.9393 165.055 30.2697 165.732 29.7433C166.011 29.5171 166.324 29.3363 166.659 29.2077C166.356 29.3872 166.063 29.5821 165.78 29.7915C165.036 30.4208 164.467 31.2304 164.125 32.1429C163.832 32.831 163.695 33.5755 163.724 34.3228C163.752 35.0702 163.946 35.8019 164.291 36.4655C164.719 37.2699 165.317 37.9717 166.043 38.5223C166.83 39.1403 167.782 39.5128 168.78 39.5935H168.871L168.898 39.6739C169.487 41.6664 170.296 43.75 171.04 45.9782L170.863 45.8925L173.542 44.998L174.763 44.5856L174.677 44.7677C173.879 42.5556 173.108 40.4291 172.401 38.4741V38.3937L172.465 38.3294C173.244 37.5559 173.824 36.606 174.157 35.5603C174.442 34.6006 174.442 33.5793 174.157 32.6197C173.574 30.8199 172.369 29.4541 171.062 28.972C170.483 28.7489 169.865 28.6451 169.246 28.6667C168.783 28.6773 168.323 28.7402 167.875 28.8542C167.076 29.0524 166.702 29.2345 166.696 29.2077Z" fill="#263238"/>
<path d="M150.14 183.865L96.6361 183.619C93.5463 183.602 90.5896 182.359 88.4153 180.164C86.241 177.968 85.027 175 85.0398 171.91L85.6075 37.7834C85.6139 36.2526 85.9218 34.738 86.5138 33.3263C87.1057 31.9146 87.9702 30.6334 89.0576 29.5559C90.145 28.4785 91.4341 27.6259 92.8512 27.0469C94.2683 26.4679 95.7856 26.1739 97.3164 26.1817L150.815 26.4281C153.905 26.4436 156.862 27.6849 159.037 29.8793C161.213 32.0737 162.428 35.0417 162.417 38.1315L161.849 172.253C161.843 173.784 161.535 175.299 160.943 176.712C160.351 178.124 159.487 179.406 158.399 180.484C157.312 181.562 156.023 182.416 154.606 182.996C153.189 183.576 151.671 183.872 150.14 183.865Z" fill="#455A64"/>
<path d="M150.735 31.0397H140.365C140.026 31.046 139.693 31.1188 139.382 31.2541C139.072 31.3894 138.792 31.5845 138.557 31.8282C138.322 32.072 138.138 32.3596 138.014 32.6746C137.891 32.9896 137.83 33.3259 137.837 33.6643V35.5443C137.843 35.8824 137.783 36.2184 137.659 36.5332C137.535 36.8479 137.351 37.1351 137.116 37.3784C136.881 37.6217 136.601 37.8163 136.29 37.951C135.98 38.0857 135.647 38.158 135.308 38.1635L115.094 38.0725C114.41 38.0542 113.761 37.7653 113.29 37.2692C112.819 36.7731 112.564 36.1103 112.582 35.4265V33.5464C112.599 32.8634 112.345 32.2015 111.875 31.7055C111.405 31.2095 110.758 30.92 110.075 30.9004H106.427L97.3485 30.8576C95.189 30.8447 93.1125 31.6881 91.5735 33.2029C90.0345 34.7178 89.1585 36.7808 89.1373 38.9402L88.6016 169.858C88.5967 170.93 88.8028 171.991 89.2082 172.983C89.6136 173.975 90.2104 174.877 90.9644 175.638C91.7185 176.399 92.615 177.004 93.6028 177.418C94.5907 177.833 95.6505 178.049 96.7218 178.054L150.113 178.3C151.185 178.305 152.248 178.099 153.24 177.693C154.232 177.287 155.135 176.69 155.896 175.936C156.658 175.181 157.263 174.284 157.678 173.295C158.093 172.307 158.309 171.246 158.314 170.174L158.849 39.2562C158.862 37.0907 158.015 35.0088 156.493 33.4681C154.971 31.9273 152.9 31.0538 150.735 31.0397Z" fill="white"/>
<path d="M103.816 157.283C103.394 157.283 102.987 157.215 102.597 157.08C102.212 156.944 101.914 156.765 101.702 156.543L101.938 156.08C102.144 156.286 102.418 156.454 102.759 156.584C103.101 156.708 103.453 156.771 103.816 156.771C104.326 156.771 104.708 156.679 104.963 156.494C105.218 156.305 105.345 156.061 105.345 155.762C105.345 155.535 105.275 155.353 105.134 155.218C104.998 155.082 104.83 154.979 104.63 154.909C104.429 154.833 104.15 154.751 103.792 154.665C103.364 154.556 103.022 154.453 102.767 154.356C102.513 154.253 102.293 154.098 102.109 153.892C101.93 153.686 101.84 153.407 101.84 153.055C101.84 152.767 101.916 152.507 102.068 152.274C102.22 152.036 102.453 151.846 102.767 151.705C103.082 151.564 103.472 151.494 103.938 151.494C104.264 151.494 104.581 151.54 104.89 151.632C105.204 151.719 105.475 151.84 105.703 151.998L105.5 152.477C105.261 152.32 105.006 152.204 104.735 152.128C104.464 152.046 104.199 152.006 103.938 152.006C103.44 152.006 103.063 152.103 102.808 152.299C102.559 152.488 102.434 152.735 102.434 153.039C102.434 153.266 102.502 153.45 102.637 153.591C102.778 153.727 102.952 153.833 103.158 153.909C103.369 153.979 103.651 154.058 104.003 154.144C104.421 154.247 104.757 154.35 105.012 154.453C105.272 154.551 105.491 154.703 105.67 154.909C105.849 155.109 105.939 155.383 105.939 155.73C105.939 156.017 105.86 156.28 105.703 156.519C105.551 156.752 105.315 156.939 104.995 157.08C104.676 157.215 104.283 157.283 103.816 157.283ZM107.25 151.542H107.851V157.234H107.25V151.542ZM113.712 154.388H114.289V156.559C114.024 156.792 113.709 156.971 113.346 157.096C112.983 157.221 112.601 157.283 112.2 157.283C111.63 157.283 111.118 157.158 110.663 156.909C110.208 156.66 109.85 156.315 109.59 155.876C109.329 155.432 109.199 154.936 109.199 154.388C109.199 153.841 109.329 153.347 109.59 152.908C109.85 152.464 110.208 152.117 110.663 151.868C111.118 151.618 111.633 151.494 112.208 151.494C112.641 151.494 113.04 151.564 113.403 151.705C113.766 151.84 114.073 152.044 114.322 152.315L113.948 152.697C113.498 152.252 112.926 152.03 112.232 152.03C111.771 152.03 111.354 152.133 110.98 152.339C110.611 152.54 110.321 152.822 110.11 153.185C109.899 153.543 109.793 153.944 109.793 154.388C109.793 154.833 109.899 155.234 110.11 155.592C110.321 155.95 110.611 156.231 110.98 156.437C111.349 156.643 111.763 156.746 112.224 156.746C112.81 156.746 113.306 156.6 113.712 156.307V154.388ZM120.749 151.542V157.234H120.253L116.594 152.616V157.234H115.992V151.542H116.488L120.156 156.161V151.542H120.749ZM124.735 151.542H125.337V157.234H124.735V151.542ZM131.946 151.542V157.234H131.45L127.791 152.616V157.234H127.189V151.542H127.685L131.352 156.161V151.542H131.946Z" fill="#2597BC"/>
<path d="M111.77 69.5247L97.9935 69.4622L97.9821 71.9903L111.758 72.0528L111.77 69.5247Z" fill="#2597BC"/>
<path opacity="0.1" d="M111.77 69.5247L97.9935 69.4622L97.9821 71.9903L111.758 72.0528L111.77 69.5247Z" fill="black"/>
<path d="M152.154 85.0472C152.262 85.0363 152.368 85.0111 152.47 84.9722C152.618 84.9143 152.747 84.8157 152.842 84.6878C152.937 84.5599 152.993 84.4078 153.006 84.2491C153.006 83.3975 153.006 82.1548 153.006 80.5587C153.006 79.7606 153.006 78.8661 153.006 77.8805C153.006 77.6395 153.006 77.3877 153.006 77.136C153.04 76.8917 152.987 76.643 152.856 76.4343C152.782 76.3343 152.686 76.2527 152.575 76.196C152.465 76.1393 152.342 76.109 152.218 76.1076H151.383H143.643L98.8428 75.9415C98.7282 75.9396 98.6147 75.9654 98.5121 76.0166C98.4096 76.0679 98.3209 76.1432 98.2536 76.2361C98.1243 76.4456 98.0748 76.6948 98.1144 76.9378C98.1144 77.4734 98.1144 78.0091 98.1144 78.5447C98.1144 79.6159 98.1144 80.6872 98.1144 81.7585C98.1144 82.2941 98.1144 82.8297 98.1144 83.3653C98.0922 83.6148 98.0922 83.8658 98.1144 84.1152C98.1425 84.2222 98.1948 84.3212 98.2672 84.4048C98.3397 84.4884 98.4303 84.5542 98.5322 84.5973C98.6377 84.6393 98.7507 84.6593 98.8643 84.6562H101.591L113.487 84.7205L133.627 84.8437L147.205 84.9508L150.895 84.9937H151.854C152.074 84.9937 152.181 84.9937 152.181 84.9937H151.854H150.895H147.205H133.627L113.487 84.9294L101.591 84.8812H98.8643C98.7142 84.8872 98.5646 84.8617 98.425 84.8062C98.284 84.746 98.1586 84.6544 98.0583 84.5384C97.9581 84.4223 97.8856 84.2849 97.8466 84.1367C97.8156 83.9961 97.8047 83.8518 97.8144 83.7081V83.3118C97.8144 82.7762 97.8144 82.2405 97.8144 81.7049C97.8144 80.6336 97.8144 79.5624 97.8144 78.4911C97.8144 77.9555 97.8144 77.4199 97.8144 76.8842C97.8042 76.7416 97.8042 76.5984 97.8144 76.4557C97.8345 76.2982 97.8954 76.1486 97.9912 76.0219C98.0836 75.8926 98.2059 75.7876 98.3476 75.7157C98.4894 75.6439 98.6464 75.6075 98.8053 75.6095L143.605 75.8558L151.345 75.9094H152.181C152.328 75.9095 152.473 75.9451 152.603 76.0132C152.734 76.0812 152.846 76.1798 152.931 76.3004C153.082 76.5333 153.143 76.8132 153.102 77.0878C153.102 77.3395 153.102 77.5913 153.102 77.8323C153.102 78.8071 153.102 79.7016 153.102 80.5104C153.102 82.1173 153.064 83.3493 153.054 84.2063C153.041 84.3711 152.981 84.5287 152.881 84.6606C152.782 84.7925 152.646 84.8932 152.491 84.9508C152.39 85.0136 152.273 85.047 152.154 85.0472Z" fill="#E0E0E0"/>
<path d="M127.328 78.6304H102.132V80.9925H127.328V78.6304Z" fill="#2597BC"/>
<path opacity="0.2" d="M127.328 78.6304H102.132V80.9925H127.328V78.6304Z" fill="white"/>
<path d="M111.676 92.5881L97.8997 92.5256L97.8882 95.0538L111.664 95.1163L111.676 92.5881Z" fill="#2597BC"/>
<path opacity="0.1" d="M111.676 92.5881L97.8997 92.5256L97.8882 95.0538L111.664 95.1163L111.676 92.5881Z" fill="black"/>
<path d="M151.806 108.111C151.914 108.098 152.021 108.078 152.127 108.052C152.277 108.005 152.414 107.926 152.531 107.82C152.647 107.715 152.74 107.586 152.802 107.442C152.886 107.225 152.919 106.993 152.898 106.761C152.898 106.504 152.898 106.226 152.898 105.915C152.898 105.294 152.898 104.587 152.898 103.773V100.371C152.924 100.125 152.869 99.8773 152.743 99.6644C152.611 99.4461 152.403 99.2841 152.159 99.2091C151.892 99.1615 151.621 99.1471 151.35 99.1663H143.643L98.9981 99.0002C98.758 99.0008 98.5262 99.0885 98.3459 99.2472C98.1656 99.4058 98.0491 99.6245 98.0179 99.8626C98.0179 100.371 98.0179 100.934 98.0179 101.469C98.0179 102.541 98.0179 103.612 98.0179 104.683C98.0179 105.219 98.0179 105.755 98.0179 106.29C97.998 106.54 98.0088 106.792 98.0501 107.04C98.1169 107.257 98.2546 107.446 98.4411 107.576C98.6389 107.701 98.8713 107.761 99.1052 107.747H99.8498H101.398L113.251 107.806L133.321 107.929L146.851 108.036L150.531 108.079H151.49H151.811H151.49H150.531H146.851H133.321L113.24 108.058L101.387 108.015H99.057C98.7673 108.032 98.4798 107.955 98.2375 107.795C97.9938 107.626 97.8159 107.379 97.734 107.094C97.686 106.821 97.6716 106.544 97.6912 106.269C97.6912 105.733 97.6912 105.197 97.6912 104.662C97.6912 103.591 97.6912 102.519 97.6912 101.448C97.6912 100.912 97.6912 100.377 97.6912 99.8412C97.7303 99.5349 97.8796 99.2534 98.1113 99.0493C98.343 98.8452 98.6412 98.7325 98.9499 98.7324L143.595 98.9788L151.302 99.0377C151.589 99.0201 151.877 99.0399 152.159 99.0966C152.438 99.1876 152.672 99.3784 152.818 99.6323C152.957 99.8682 153.017 100.142 152.989 100.414C152.989 100.666 152.989 100.912 152.989 101.159C152.989 102.128 152.989 103.017 152.989 103.837C152.989 104.656 152.989 105.347 152.989 105.979C152.989 106.285 152.989 106.569 152.989 106.831C153.009 107.071 152.97 107.311 152.877 107.533C152.807 107.681 152.707 107.812 152.582 107.917C152.457 108.022 152.311 108.1 152.154 108.143C152.037 108.153 151.919 108.142 151.806 108.111Z" fill="#E0E0E0"/>
<path d="M111.572 116.653L97.7958 116.591L97.7843 119.119L111.561 119.181L111.572 116.653Z" fill="#2597BC"/>
<path opacity="0.1" d="M111.572 116.653L97.7958 116.591L97.7843 119.119L111.561 119.181L111.572 116.653Z" fill="black"/>
<path d="M151.699 132.166C151.807 132.154 151.914 132.134 152.02 132.107C152.169 132.06 152.306 131.982 152.422 131.877C152.539 131.773 152.632 131.645 152.695 131.502C152.779 131.286 152.812 131.053 152.791 130.822C152.791 130.559 152.791 130.286 152.791 129.97C152.791 129.354 152.791 128.642 152.791 127.828V124.427C152.817 124.18 152.762 123.932 152.636 123.72C152.501 123.505 152.294 123.346 152.052 123.27C151.785 123.22 151.514 123.204 151.243 123.221H143.536L98.891 123.055C98.6508 123.056 98.4191 123.144 98.2388 123.302C98.0585 123.461 97.9419 123.68 97.9108 123.918C97.9108 124.453 97.9108 124.989 97.9108 125.525C97.9108 126.596 97.9108 127.667 97.9108 128.738C97.9108 129.274 97.9108 129.81 97.9108 130.345C97.8908 130.594 97.9016 130.844 97.9429 131.09C98.007 131.308 98.1453 131.498 98.3339 131.625C98.5305 131.754 98.7639 131.814 98.9981 131.797H101.328L113.182 131.861L133.251 131.984L146.781 132.091L150.461 132.134H151.42C151.634 132.134 151.741 132.134 151.741 132.134C151.741 132.134 151.634 132.134 151.42 132.134H150.461H146.781H133.251L113.182 132.075L101.328 132.027H98.9981C98.7081 132.047 98.4199 131.969 98.1786 131.808C97.9348 131.639 97.757 131.391 97.6751 131.106C97.6271 130.834 97.6127 130.557 97.6322 130.281C97.6322 129.745 97.6322 129.21 97.6322 128.674C97.6322 127.603 97.6322 126.532 97.6322 125.46C97.6322 124.925 97.6322 124.389 97.6322 123.827C97.6701 123.521 97.8184 123.239 98.0492 123.035C98.28 122.831 98.5774 122.718 98.8856 122.718L143.53 122.964L151.238 123.023C151.525 123.006 151.813 123.025 152.095 123.082C152.373 123.173 152.608 123.364 152.754 123.618C152.892 123.854 152.952 124.128 152.925 124.4C152.925 124.652 152.925 124.903 152.925 125.144C152.925 126.114 152.925 127.003 152.925 127.822C152.925 128.642 152.925 129.333 152.925 129.965C152.925 130.27 152.925 130.554 152.925 130.817C152.946 131.056 152.907 131.297 152.813 131.518C152.743 131.666 152.643 131.797 152.518 131.902C152.393 132.008 152.247 132.085 152.09 132.129C151.964 132.172 151.83 132.185 151.699 132.166Z" fill="#E0E0E0"/>
<path d="M126.79 102.362L101.594 102.248L101.583 104.61L126.779 104.724L126.79 102.362Z" fill="#2597BC"/>
<path opacity="0.2" d="M126.79 102.362L101.594 102.248L101.583 104.61L126.779 104.724L126.79 102.362Z" fill="white"/>
<path d="M103.872 127.796C103.857 128.011 103.778 128.217 103.646 128.388C103.514 128.56 103.335 128.688 103.131 128.758C102.926 128.829 102.706 128.837 102.497 128.784C102.288 128.73 102.099 128.616 101.954 128.455C101.809 128.295 101.714 128.096 101.681 127.882C101.649 127.669 101.679 127.45 101.769 127.254C101.86 127.058 102.006 126.892 102.189 126.778C102.372 126.664 102.585 126.606 102.801 126.612C103.1 126.629 103.379 126.762 103.58 126.984C103.78 127.205 103.886 127.497 103.872 127.796Z" fill="#2597BC"/>
<path d="M107.284 127.812C107.295 127.963 107.274 128.114 107.224 128.257C107.173 128.4 107.094 128.53 106.991 128.641C106.887 128.752 106.762 128.84 106.624 128.9C106.485 128.961 106.335 128.992 106.184 128.992C106.032 128.992 105.882 128.961 105.744 128.9C105.605 128.84 105.48 128.752 105.377 128.641C105.273 128.53 105.194 128.4 105.144 128.257C105.093 128.114 105.072 127.963 105.083 127.812C105.072 127.661 105.093 127.509 105.144 127.366C105.194 127.224 105.273 127.093 105.377 126.982C105.48 126.871 105.605 126.783 105.744 126.723C105.882 126.662 106.032 126.631 106.184 126.631C106.335 126.631 106.485 126.662 106.624 126.723C106.762 126.783 106.887 126.871 106.991 126.982C107.094 127.093 107.173 127.224 107.224 127.366C107.274 127.509 107.295 127.661 107.284 127.812Z" fill="#2597BC"/>
<path d="M110.702 127.828C110.686 128.043 110.607 128.249 110.475 128.42C110.344 128.592 110.164 128.72 109.96 128.791C109.756 128.861 109.535 128.869 109.326 128.816C109.117 128.762 108.928 128.648 108.783 128.487C108.638 128.327 108.543 128.128 108.511 127.915C108.478 127.701 108.509 127.483 108.599 127.286C108.689 127.09 108.835 126.924 109.018 126.81C109.202 126.696 109.415 126.638 109.63 126.644C109.928 126.662 110.207 126.796 110.408 127.017C110.608 127.239 110.714 127.53 110.702 127.828Z" fill="#2597BC"/>
<path d="M114.114 127.844C114.098 128.059 114.019 128.265 113.887 128.436C113.755 128.608 113.576 128.736 113.372 128.807C113.168 128.877 112.947 128.885 112.738 128.832C112.529 128.778 112.34 128.664 112.195 128.503C112.05 128.343 111.955 128.144 111.922 127.931C111.89 127.717 111.92 127.499 112.011 127.302C112.101 127.106 112.247 126.94 112.43 126.826C112.613 126.712 112.826 126.654 113.042 126.66C113.34 126.678 113.619 126.812 113.819 127.033C114.02 127.255 114.125 127.546 114.114 127.844Z" fill="#2597BC"/>
<path d="M117.526 127.855C117.511 128.07 117.433 128.277 117.302 128.449C117.17 128.621 116.992 128.75 116.787 128.821C116.583 128.892 116.362 128.902 116.153 128.849C115.943 128.795 115.754 128.681 115.608 128.521C115.463 128.361 115.368 128.162 115.334 127.948C115.301 127.735 115.332 127.516 115.422 127.319C115.512 127.123 115.658 126.957 115.841 126.843C116.025 126.728 116.238 126.67 116.454 126.676C116.751 126.694 117.029 126.827 117.23 127.048C117.43 127.268 117.536 127.557 117.526 127.855Z" fill="#2597BC"/>
<path d="M120.943 127.871C120.928 128.085 120.851 128.291 120.721 128.462C120.591 128.634 120.414 128.764 120.211 128.836C120.008 128.907 119.789 128.919 119.58 128.867C119.371 128.816 119.181 128.705 119.035 128.548C118.888 128.39 118.791 128.194 118.754 127.982C118.718 127.769 118.745 127.551 118.831 127.354C118.917 127.157 119.059 126.989 119.239 126.872C119.419 126.754 119.63 126.692 119.845 126.692C120.147 126.703 120.432 126.834 120.637 127.055C120.843 127.275 120.953 127.569 120.943 127.871Z" fill="#2597BC"/>
<path d="M124.355 127.887C124.365 128.038 124.345 128.189 124.294 128.332C124.244 128.474 124.164 128.605 124.061 128.716C123.958 128.827 123.833 128.915 123.694 128.975C123.555 129.036 123.405 129.067 123.254 129.067C123.103 129.067 122.953 129.036 122.814 128.975C122.675 128.915 122.55 128.827 122.447 128.716C122.344 128.605 122.264 128.474 122.214 128.332C122.163 128.189 122.143 128.038 122.153 127.887C122.143 127.736 122.163 127.584 122.214 127.441C122.264 127.299 122.344 127.168 122.447 127.057C122.55 126.946 122.675 126.858 122.814 126.798C122.953 126.737 123.103 126.706 123.254 126.706C123.405 126.706 123.555 126.737 123.694 126.798C123.833 126.858 123.958 126.946 124.061 127.057C124.164 127.168 124.244 127.299 124.294 127.441C124.345 127.584 124.365 127.736 124.355 127.887Z" fill="#2597BC"/>
<path d="M127.767 127.903C127.752 128.117 127.675 128.323 127.545 128.494C127.415 128.666 127.238 128.796 127.035 128.867C126.832 128.939 126.613 128.951 126.404 128.899C126.195 128.848 126.005 128.737 125.859 128.58C125.712 128.422 125.615 128.226 125.578 128.013C125.542 127.801 125.569 127.583 125.655 127.386C125.741 127.189 125.883 127.021 126.063 126.904C126.243 126.786 126.454 126.724 126.669 126.724C126.97 126.735 127.255 126.866 127.461 127.087C127.667 127.307 127.777 127.601 127.767 127.903Z" fill="#2597BC"/>
<path d="M131.179 127.919C131.164 128.135 131.086 128.341 130.955 128.513C130.824 128.685 130.645 128.815 130.44 128.886C130.236 128.957 130.015 128.966 129.806 128.913C129.596 128.86 129.407 128.746 129.261 128.586C129.116 128.426 129.021 128.226 128.988 128.013C128.954 127.799 128.985 127.58 129.075 127.384C129.165 127.187 129.311 127.021 129.495 126.907C129.678 126.793 129.891 126.735 130.107 126.741C130.404 126.758 130.683 126.892 130.883 127.112C131.083 127.332 131.189 127.622 131.179 127.919Z" fill="#2597BC"/>
<g opacity="0.2">
<path opacity="0.2" d="M103.872 127.796C103.857 128.011 103.778 128.217 103.646 128.388C103.514 128.56 103.335 128.688 103.131 128.758C102.926 128.829 102.706 128.837 102.497 128.784C102.288 128.73 102.099 128.616 101.954 128.455C101.809 128.295 101.714 128.096 101.681 127.882C101.649 127.669 101.679 127.45 101.769 127.254C101.86 127.058 102.006 126.892 102.189 126.778C102.372 126.664 102.585 126.606 102.801 126.612C103.1 126.629 103.379 126.762 103.58 126.984C103.78 127.205 103.886 127.497 103.872 127.796Z" fill="white"/>
<path opacity="0.2" d="M107.284 127.812C107.295 127.963 107.274 128.114 107.224 128.257C107.173 128.4 107.094 128.53 106.991 128.641C106.887 128.752 106.762 128.84 106.624 128.9C106.485 128.961 106.335 128.992 106.184 128.992C106.032 128.992 105.882 128.961 105.744 128.9C105.605 128.84 105.48 128.752 105.377 128.641C105.273 128.53 105.194 128.4 105.144 128.257C105.093 128.114 105.072 127.963 105.083 127.812C105.072 127.661 105.093 127.509 105.144 127.366C105.194 127.224 105.273 127.093 105.377 126.982C105.48 126.872 105.605 126.783 105.744 126.723C105.882 126.663 106.032 126.631 106.184 126.631C106.335 126.631 106.485 126.663 106.624 126.723C106.762 126.783 106.887 126.872 106.991 126.982C107.094 127.093 107.173 127.224 107.224 127.366C107.274 127.509 107.295 127.661 107.284 127.812Z" fill="white"/>
<path opacity="0.2" d="M110.702 127.828C110.686 128.043 110.607 128.249 110.475 128.42C110.344 128.592 110.164 128.72 109.96 128.791C109.756 128.861 109.535 128.869 109.326 128.816C109.117 128.762 108.928 128.648 108.783 128.487C108.638 128.327 108.543 128.128 108.511 127.915C108.478 127.701 108.509 127.483 108.599 127.286C108.689 127.09 108.835 126.924 109.018 126.81C109.202 126.696 109.415 126.638 109.63 126.644C109.928 126.662 110.207 126.796 110.408 127.017C110.608 127.239 110.714 127.53 110.702 127.828Z" fill="white"/>
<path opacity="0.2" d="M114.114 127.844C114.098 128.059 114.019 128.265 113.887 128.437C113.755 128.608 113.576 128.736 113.372 128.807C113.168 128.877 112.947 128.886 112.738 128.832C112.529 128.778 112.34 128.664 112.195 128.504C112.05 128.343 111.955 128.144 111.922 127.931C111.89 127.717 111.92 127.499 112.011 127.302C112.101 127.106 112.247 126.941 112.43 126.826C112.613 126.712 112.826 126.654 113.042 126.66C113.34 126.678 113.619 126.812 113.819 127.033C114.02 127.255 114.125 127.546 114.114 127.844Z" fill="white"/>
<path opacity="0.2" d="M117.526 127.855C117.511 128.07 117.433 128.277 117.302 128.449C117.17 128.621 116.992 128.75 116.787 128.821C116.583 128.892 116.362 128.902 116.153 128.849C115.943 128.795 115.754 128.681 115.608 128.521C115.463 128.361 115.368 128.162 115.334 127.948C115.301 127.735 115.332 127.516 115.422 127.319C115.512 127.123 115.658 126.957 115.841 126.843C116.025 126.728 116.238 126.67 116.454 126.676C116.751 126.694 117.029 126.827 117.23 127.048C117.43 127.268 117.536 127.557 117.526 127.855Z" fill="white"/>
<path opacity="0.2" d="M120.943 127.871C120.928 128.085 120.851 128.291 120.721 128.462C120.591 128.634 120.414 128.764 120.211 128.836C120.008 128.907 119.789 128.919 119.58 128.867C119.371 128.816 119.181 128.705 119.035 128.548C118.888 128.39 118.791 128.194 118.754 127.982C118.718 127.769 118.745 127.551 118.831 127.354C118.917 127.157 119.059 126.989 119.239 126.872C119.419 126.754 119.63 126.692 119.845 126.692C120.147 126.703 120.432 126.834 120.637 127.055C120.843 127.275 120.953 127.569 120.943 127.871Z" fill="white"/>
<path opacity="0.2" d="M124.355 127.887C124.365 128.038 124.345 128.189 124.294 128.332C124.244 128.475 124.164 128.605 124.061 128.716C123.958 128.827 123.833 128.915 123.694 128.975C123.555 129.036 123.406 129.067 123.254 129.067C123.103 129.067 122.953 129.036 122.814 128.975C122.675 128.915 122.55 128.827 122.447 128.716C122.344 128.605 122.265 128.475 122.214 128.332C122.164 128.189 122.143 128.038 122.153 127.887C122.143 127.736 122.164 127.584 122.214 127.442C122.265 127.299 122.344 127.168 122.447 127.057C122.55 126.947 122.675 126.858 122.814 126.798C122.953 126.738 123.103 126.707 123.254 126.707C123.406 126.707 123.555 126.738 123.694 126.798C123.833 126.858 123.958 126.947 124.061 127.057C124.164 127.168 124.244 127.299 124.294 127.442C124.345 127.584 124.365 127.736 124.355 127.887Z" fill="white"/>
<path opacity="0.2" d="M127.767 127.903C127.752 128.117 127.675 128.323 127.545 128.495C127.415 128.666 127.238 128.796 127.035 128.868C126.832 128.94 126.613 128.951 126.404 128.9C126.195 128.848 126.005 128.737 125.859 128.58C125.712 128.423 125.615 128.226 125.578 128.014C125.542 127.802 125.569 127.583 125.655 127.386C125.741 127.189 125.883 127.021 126.063 126.904C126.243 126.786 126.454 126.724 126.669 126.724C126.97 126.736 127.255 126.866 127.461 127.087C127.667 127.308 127.777 127.601 127.767 127.903Z" fill="white"/>
<path opacity="0.2" d="M131.179 127.919C131.164 128.135 131.086 128.341 130.955 128.513C130.824 128.685 130.645 128.815 130.44 128.886C130.236 128.957 130.016 128.966 129.806 128.913C129.596 128.86 129.407 128.746 129.262 128.586C129.116 128.426 129.021 128.226 128.988 128.013C128.954 127.799 128.985 127.58 129.075 127.384C129.165 127.187 129.311 127.021 129.495 126.907C129.678 126.793 129.891 126.735 130.108 126.741C130.405 126.758 130.683 126.892 130.883 127.112C131.083 127.332 131.189 127.622 131.179 127.919Z" fill="white"/>
</g>
<path d="M126.331 50.5956C126.703 50.4317 127.019 50.1621 127.239 49.8202C127.459 49.4783 127.574 49.0792 127.569 48.6727C127.583 48.4084 127.542 48.1441 127.451 47.8958C127.359 47.6475 127.218 47.4205 127.036 47.2285C126.854 47.0365 126.634 46.8837 126.391 46.7792C126.148 46.6747 125.886 46.6208 125.622 46.6208C125.357 46.6208 125.095 46.6747 124.852 46.7792C124.609 46.8837 124.389 47.0365 124.207 47.2285C124.025 47.4205 123.884 47.6475 123.792 47.8958C123.701 48.1441 123.661 48.4084 123.675 48.6727C123.666 49.0833 123.78 49.4871 124.001 49.8332C124.222 50.1792 124.541 50.452 124.917 50.617C121.918 51.067 122.052 54.3236 122.052 54.3236L129.143 54.3557C129.143 54.3557 129.309 51.0402 126.331 50.5956Z" fill="#2597BC"/>
<path opacity="0.1" d="M126.331 50.5956C126.703 50.4317 127.019 50.1621 127.239 49.8202C127.459 49.4783 127.574 49.0792 127.569 48.6727C127.583 48.4084 127.542 48.1441 127.451 47.8958C127.359 47.6475 127.218 47.4205 127.036 47.2285C126.854 47.0365 126.634 46.8837 126.391 46.7792C126.148 46.6747 125.886 46.6208 125.622 46.6208C125.357 46.6208 125.095 46.6747 124.852 46.7792C124.609 46.8837 124.389 47.0365 124.207 47.2285C124.025 47.4205 123.884 47.6475 123.792 47.8958C123.701 48.1441 123.661 48.4084 123.675 48.6727C123.666 49.0833 123.78 49.4871 124.001 49.8332C124.222 50.1792 124.541 50.452 124.917 50.617C121.918 51.067 122.052 54.3236 122.052 54.3236L129.143 54.3557C129.143 54.3557 129.309 51.0402 126.331 50.5956Z" fill="black"/>
<path d="M137.855 56.456L112.579 56.3413L112.565 59.3622L137.841 59.4769L137.855 56.456Z" fill="#2597BC"/>
<path opacity="0.2" d="M137.855 56.456L112.579 56.3413L112.565 59.3622L137.841 59.4769L137.855 56.456Z" fill="white"/>
<path d="M44.9318 72.1117H44.6801L43.9516 72.1653C43.5574 72.189 43.1654 72.2409 42.7786 72.3206C42.528 72.3558 42.2795 72.4041 42.0341 72.4652L41.2038 72.6956C39.7908 73.1291 38.4575 73.7894 37.2563 74.6506C35.6691 75.8026 34.3438 77.2776 33.3676 78.9785C32.7938 79.959 32.3372 81.0035 32.0071 82.0905C31.6603 83.2719 31.4606 84.4917 31.4126 85.722C31.3806 86.3684 31.3914 87.0161 31.4447 87.661C31.4447 87.9878 31.5357 88.3145 31.5786 88.6466C31.6146 88.9813 31.6773 89.3127 31.7661 89.6375C32.2477 91.7868 33.225 93.7939 34.6199 95.4985C36.0149 97.2031 37.7889 98.5582 39.8005 99.4556C41.2564 100.084 42.8168 100.434 44.4015 100.489C46.0383 100.579 47.6766 100.345 49.2222 99.7984L49.6935 99.6216H49.7578L49.8114 99.6537L56.5657 103.082L56.3675 103.253C55.6444 101.014 54.9481 98.8449 54.2732 96.7613V96.681L54.3321 96.6221C55.9706 94.9718 57.1869 92.9507 57.8779 90.7302C58.5038 88.7001 58.6865 86.5593 58.4136 84.4526C58.1708 82.5803 57.5688 80.7725 56.6406 79.1285C55.8406 77.7162 54.8085 76.4487 53.5876 75.3791C52.5803 74.5325 51.4654 73.8228 50.272 73.2687C49.369 72.8792 48.4286 72.5831 47.4653 72.3849L46.3941 72.2081L45.6174 72.1492L45.1461 72.1171H44.9854C45.0388 72.1112 45.0927 72.1112 45.1461 72.1171H45.6228L46.3994 72.1492L47.4707 72.3046C48.4459 72.4882 49.3992 72.7737 50.3149 73.1562C51.5288 73.7038 52.6637 74.4118 53.6893 75.2612C54.9327 76.3261 55.9867 77.5938 56.8067 79.0106C57.7612 80.6723 58.3817 82.5046 58.6332 84.4044C58.9288 86.5437 58.7588 88.7215 58.135 90.7891C57.4395 93.0558 56.2043 95.1199 54.5356 96.8042L54.5678 96.6649C55.2427 98.7485 55.9443 100.918 56.6728 103.151L56.7745 103.478L56.4692 103.323L49.715 99.9001H49.8328L49.3507 100.077C47.7754 100.631 46.1067 100.871 44.439 100.784C42.8202 100.722 41.2271 100.359 39.7416 99.7127C36.9079 98.4991 34.5504 96.3899 33.0301 93.7083C32.3306 92.4698 31.8197 91.1339 31.5143 89.7446C31.4307 89.4114 31.3681 89.0733 31.3268 88.7323C31.284 88.3948 31.2144 88.0627 31.1983 87.7307C31.0533 85.8248 31.2548 83.9085 31.7928 82.0744C32.1311 80.9724 32.6005 79.915 33.1908 78.9249C34.1904 77.2086 35.5433 75.7242 37.1598 74.5703C38.3809 73.7068 39.7365 73.0516 41.1717 72.6313L42.0126 72.417C42.2601 72.3596 42.5104 72.3149 42.7625 72.2831C43.1533 72.2108 43.549 72.1678 43.9462 72.1546L44.6801 72.1278C44.7635 72.1166 44.8476 72.1112 44.9318 72.1117Z" fill="#2597BC"/>
<path d="M47.9848 84.6026H46.9939L44.8514 81.5924V79.6159C44.8514 79.6159 43.3195 79.5195 43.5016 82.1066C43.6837 84.6937 43.5016 84.0349 43.5016 84.0349C43.5016 84.0349 40.2504 84.0349 39.9826 84.3295C39.7147 84.6241 39.6987 87.7628 39.6612 89.5143C39.6406 89.9366 39.7618 90.3535 40.0054 90.699C40.249 91.0445 40.601 91.2987 41.0056 91.4212C41.119 91.4526 41.2361 91.4688 41.3538 91.4694C42.1679 91.4694 46.3083 90.8106 46.3083 90.8106H48.017L47.9848 84.6026Z" fill="#2597BC"/>
<path d="M50.8182 84.0723L50.2076 90.8426H48.515V84.2115L50.8182 84.0723Z" fill="#2597BC"/>
<path d="M71.0061 221.906V217.326L62.795 217.267L62.7253 224.193L63.2342 224.23C65.4999 224.375 74.7609 224.589 76.2821 224.118C77.9747 223.593 71.0061 221.906 71.0061 221.906Z" fill="#2597BC"/>
<path d="M76.475 223.689C76.475 223.764 73.4005 223.828 69.6136 223.828C65.8267 223.828 62.7522 223.764 62.7522 223.689C62.7522 223.614 65.8267 223.55 69.6136 223.55C73.4005 223.55 76.475 223.614 76.475 223.689Z" fill="#263238"/>
<path d="M71.1507 222.843C71.0811 222.805 71.1507 222.564 71.3168 222.307C71.4828 222.05 71.7078 221.943 71.7613 221.997C71.8149 222.05 71.7024 222.254 71.5417 222.473C71.381 222.693 71.2204 222.88 71.1507 222.843Z" fill="#263238"/>
<path d="M71.6757 223.143C71.6007 223.143 71.6382 222.843 71.7989 222.559C71.9595 222.275 72.1738 222.104 72.2327 222.146C72.2916 222.189 72.1952 222.43 72.0452 222.682C71.8953 222.934 71.7453 223.169 71.6757 223.143Z" fill="#263238"/>
<path d="M65.2266 223.668C65.1945 223.668 65.0713 223.571 64.8946 223.368C64.6788 223.106 64.4384 222.866 64.1768 222.65C63.9195 222.444 63.613 222.31 63.2877 222.259C63.0359 222.227 62.8752 222.259 62.8592 222.227C62.8431 222.195 62.9984 222.082 63.293 222.061C63.6818 222.052 64.0611 222.181 64.3643 222.425C64.6484 222.656 64.8879 222.938 65.0713 223.255C65.1945 223.491 65.2588 223.646 65.2266 223.668Z" fill="#263238"/>
<path d="M71.1775 221.981C71.215 222.045 71.0757 222.206 70.84 222.291C70.6044 222.377 70.3955 222.345 70.3848 222.291C70.3741 222.238 70.5401 222.125 70.7436 222.05C70.9472 221.975 71.1346 221.916 71.1775 221.981Z" fill="#263238"/>
<path d="M71.049 221.536C71.049 221.616 70.8348 221.68 70.5562 221.686C70.2777 221.691 70.0581 221.627 70.0635 221.552C70.0688 221.477 70.2884 221.407 70.5562 221.402C70.824 221.397 71.0383 221.461 71.049 221.536Z" fill="#263238"/>
<path d="M91.2261 221.906V217.326L83.0149 217.267L82.9453 224.123L83.4542 224.16C85.7199 224.305 94.9862 224.589 96.5021 224.118C98.1946 223.593 91.2261 221.906 91.2261 221.906Z" fill="#2597BC"/>
<path d="M96.6949 223.7C96.6949 223.775 93.6257 223.839 89.8335 223.839C86.0412 223.839 82.9774 223.775 82.9774 223.7C82.9774 223.625 86.0466 223.561 89.8335 223.561C93.6204 223.561 96.6949 223.625 96.6949 223.7Z" fill="#263238"/>
<path d="M91.3707 222.843C91.3065 222.805 91.3707 222.564 91.5368 222.307C91.7028 222.05 91.9278 221.943 91.9813 221.997C92.0349 222.05 91.9224 222.254 91.7617 222.473C91.601 222.693 91.4404 222.88 91.3707 222.843Z" fill="#263238"/>
<path d="M91.8957 223.143C91.8261 223.143 91.8583 222.843 92.0243 222.559C92.1903 222.275 92.3992 222.104 92.4582 222.146C92.5171 222.189 92.4153 222.43 92.2653 222.682C92.1154 222.934 91.9707 223.169 91.8957 223.143Z" fill="#263238"/>
<path d="M85.4467 223.668C85.4146 223.668 85.2968 223.571 85.1146 223.368C84.8989 223.106 84.6585 222.866 84.3969 222.65C84.1396 222.444 83.8331 222.31 83.5078 222.259C83.2614 222.227 83.0953 222.259 83.0793 222.227C83.0632 222.195 83.2185 222.082 83.5131 222.061C83.9019 222.052 84.2812 222.181 84.5844 222.425C84.8699 222.655 85.1098 222.937 85.2914 223.255C85.4146 223.491 85.4789 223.646 85.4467 223.668Z" fill="#263238"/>
<path d="M91.3976 221.981C91.4351 222.045 91.2958 222.206 91.0601 222.291C90.8245 222.377 90.6156 222.345 90.6049 222.291C90.5941 222.238 90.7602 222.125 90.9637 222.05C91.1673 221.975 91.3547 221.916 91.3976 221.981Z" fill="#263238"/>
<path d="M91.2796 221.536C91.2796 221.616 91.0654 221.68 90.7868 221.686C90.5083 221.691 90.2941 221.627 90.2994 221.552C90.3048 221.477 90.519 221.407 90.7868 221.402C91.0547 221.397 91.2796 221.461 91.2796 221.536Z" fill="#263238"/>
<path d="M121.478 85.9095C121.264 85.6899 120.734 85.797 120.734 85.797C120.787 85.4886 120.787 85.1734 120.734 84.865C120.638 84.565 119.963 84.624 119.963 84.624C119.932 84.3714 119.932 84.1159 119.963 83.8634C119.968 83.8074 119.956 83.7511 119.928 83.7022C119.9 83.6533 119.858 83.6142 119.807 83.5902C119.488 83.46 119.145 83.398 118.8 83.4081C118.388 83.1135 120.059 80.7728 120.68 80.0229C121.302 79.273 121.189 78.6892 120.638 78.6892C120.257 78.6892 118.308 80.9388 117.708 81.6941C117.108 82.4493 115.517 84.549 115.463 82.8725C115.41 81.1959 114.735 79.9319 114.312 79.7176C113.889 79.5034 113.439 80.0068 113.669 80.4728C113.871 81.0023 113.998 81.5577 114.044 82.1226C114.102 82.5725 114.082 83.0292 113.985 83.4724C113.807 84.297 113.566 85.1065 113.262 85.8934H113.219C113.219 85.8934 101.532 97.1041 100.685 97.9022C99.9302 98.6199 84.7398 97.0505 81.692 96.7292C80.6564 96.5776 79.6106 96.506 78.564 96.5149C77.241 96.5738 77.0053 96.7613 75.6876 96.7774C72.36 96.8143 69.0401 97.1062 65.7571 97.6504C64.2705 97.9032 62.8819 98.5593 61.7428 99.5473C60.6037 100.535 59.7578 101.817 59.2974 103.253C56.2283 112.841 49.2758 135.535 48.0492 148.283C47.1223 149.964 46.2856 151.693 45.5425 153.463C44.6801 155.809 44.889 155.889 45.1783 155.943C45.9603 156.087 46.8494 151.877 47.1815 152.895C47.5136 153.913 45.4943 157.914 46.3138 158.032C47.385 158.182 48.2367 153.747 48.3385 153.393C48.4402 153.04 48.9705 153.152 48.8741 153.484C48.7188 153.956 47.2136 158.953 48.2635 159.114C48.842 159.199 48.9062 158.144 48.9062 158.144C48.9062 158.144 49.9775 153.361 50.4649 153.458C50.9523 153.554 50.4328 156.377 50.1864 157.319C49.94 158.262 50.2828 158.739 50.7863 158.509C51.1291 158.348 51.9486 155.482 52.1736 154.55C52.3985 153.618 52.9609 151.037 53.7162 152.531C54.4714 154.025 55.6176 154.893 56.089 154.914C56.1952 154.902 56.2953 154.858 56.3765 154.789C56.4576 154.719 56.516 154.627 56.5443 154.524C56.5725 154.421 56.5692 154.311 56.5349 154.21C56.5005 154.109 56.4366 154.02 56.3515 153.956C55.946 153.56 55.5981 153.109 55.3177 152.617C55.0678 152.233 54.8866 151.809 54.7821 151.363C54.5662 150.475 54.4406 149.567 54.4071 148.653L54.3214 148.117C55.5212 142.177 58.976 124.743 63.9627 113.607L66.0088 117.817L66.898 120.934L61.4453 134.395L84.7023 134.089L81.2314 120.731L85.4468 106.804C90.005 106.906 101.708 107.077 103.658 106.194C106.111 105.122 118.8 89.0965 118.8 89.0965C119.627 88.4538 120.42 87.7672 121.173 87.0397C121.173 87.0397 121.944 86.3915 121.478 85.9095Z" fill="#FFBE9D"/>
<path d="M60.422 124.448C61.0969 122.145 64.5624 110.757 64.5624 110.757C64.5624 110.757 66.2657 120.04 65.8158 121.159C65.4019 122.118 64.913 123.042 64.3535 123.923C60.422 129.906 60.9362 132.9 60.9362 132.9L84.6913 132.177C84.7449 128.856 82.7791 121.132 82.372 119.9C81.965 118.668 83.3201 114.635 83.3201 114.635C83.3201 114.635 85.9982 111.909 85.9018 110.506C85.851 109.245 85.6951 107.991 85.4358 106.756L99.8978 107.292L99.4425 97.4897L78.6708 95.4115C77.9478 97.4522 71.4077 96.4506 71.4077 96.4506C64.3481 96.6863 63.9089 97.9825 60.9737 100.264C58.0384 102.546 53.1803 122.129 53.1803 122.129L60.422 124.448Z" fill="#2597BC"/>
<path d="M74.4664 122.129C74.0548 122.202 73.6355 122.224 73.2184 122.193C72.4418 122.193 71.3759 122.139 70.2028 122.022C69.0298 121.904 67.9693 121.738 67.214 121.588C66.7976 121.534 66.3893 121.43 65.9982 121.277C66.4169 121.277 66.8348 121.317 67.2462 121.395C68.0068 121.491 69.062 121.625 70.2296 121.743C71.3973 121.861 72.4578 121.941 73.2238 121.995C73.6413 122 74.0574 122.045 74.4664 122.129Z" fill="#263238"/>
<path d="M76.0948 120.109C75.683 120.311 75.2475 120.46 74.7986 120.554C72.6616 121.115 70.4569 121.377 68.2478 121.331C67.7907 121.345 67.3336 121.302 66.8873 121.202C67.3385 121.145 67.7932 121.122 68.2478 121.132C69.0888 121.106 70.2457 121.047 71.5205 120.897C72.7953 120.747 73.9308 120.533 74.7343 120.361C75.1805 120.242 75.6354 120.158 76.0948 120.109Z" fill="#263238"/>
<path d="M84.0862 111.1C84.0754 111.508 84.0197 111.914 83.9201 112.311C83.7809 113.055 83.5666 114.073 83.2935 115.187C83.0203 116.301 82.7578 117.329 82.5222 118.026C82.4274 118.424 82.2872 118.811 82.1044 119.177C82.1342 118.77 82.2097 118.368 82.3293 117.978C82.5329 117.142 82.7632 116.178 83.0203 115.123C83.2774 114.067 83.5238 113.103 83.7273 112.268C83.7998 111.866 83.9203 111.474 84.0862 111.1Z" fill="#263238"/>
<path d="M60.6738 123.082C59.4347 122.891 58.2117 122.606 57.0155 122.23C55.7931 121.945 54.5936 121.569 53.4268 121.106C54.6653 121.3 55.888 121.585 57.0851 121.957C58.3077 122.242 59.5073 122.618 60.6738 123.082Z" fill="#263238"/>
<path d="M85.6932 106.638C85.4911 106.673 85.2846 106.673 85.0826 106.638C84.5231 106.581 83.9737 106.449 83.4489 106.247C82.5727 105.918 81.775 105.409 81.1072 104.753C80.4393 104.097 79.916 103.309 79.571 102.439C79.1895 101.482 79.0267 100.452 79.0942 99.4234C79.1181 98.5754 79.3717 97.7497 79.8281 97.0345C80.149 96.5527 80.6284 96.1984 81.1832 96.0329C81.3314 95.992 81.4847 95.9722 81.6385 95.974C81.7456 95.974 81.7992 95.974 81.7992 95.974C81.7992 95.974 81.5742 95.974 81.2153 96.1186C80.7064 96.3066 80.2747 96.6591 79.9887 97.1202C79.2603 98.2665 79.0568 100.361 79.8334 102.316C80.1949 103.238 80.7608 104.065 81.4885 104.737C82.0848 105.286 82.7716 105.728 83.5185 106.044C84.2195 106.321 84.9488 106.52 85.6932 106.638Z" fill="#263238"/>
<path d="M98.1785 107.099C98.0445 105.457 98.0016 103.808 98.05 102.161C98.008 100.515 98.0581 98.8677 98.2 97.2274C98.334 98.8682 98.377 100.515 98.3285 102.161C98.3735 103.808 98.3235 105.457 98.1785 107.099Z" fill="#263238"/>
<path d="M78.5317 96.0115C78.5907 94.817 78.7139 93.4672 78.7139 93.4672C78.7139 93.4672 81.6705 93.1405 81.8473 90.0874C82.024 87.0343 81.8473 79.9908 81.8473 79.9908L76.491 77.2484L70.5455 81.9244L71.4615 97.1898L76.9142 97.538C77.3309 97.5495 77.7353 97.3953 78.0385 97.1091C78.3418 96.823 78.5191 96.4282 78.5317 96.0115Z" fill="#FFBE9D"/>
<path d="M79.0619 87.6719C79.0619 87.6719 79.0619 87.7308 79.0137 87.8004C78.9739 87.8509 78.9223 87.891 78.8635 87.9171C78.8047 87.9432 78.7405 87.9547 78.6763 87.9504C78.3335 87.9504 78.0014 87.554 77.8836 87.0934C77.8276 86.8701 77.8276 86.6364 77.8836 86.4131C77.8946 86.3157 77.9297 86.2225 77.9858 86.1421C78.0419 86.0616 78.1173 85.9965 78.2049 85.9525C78.277 85.9227 78.3579 85.9227 78.4299 85.9525C78.4833 85.979 78.5266 86.0223 78.5531 86.0757C78.5906 86.1667 78.5531 86.2257 78.5531 86.2203C78.5531 86.215 78.5531 86.1667 78.4995 86.1132C78.4715 86.0748 78.4304 86.0481 78.3839 86.0383C78.3374 86.0284 78.289 86.036 78.2478 86.0596C78.1821 86.0993 78.1275 86.155 78.0891 86.2215C78.0507 86.288 78.0297 86.3631 78.0282 86.4399C77.9831 86.6391 77.9831 86.8459 78.0282 87.0452C78.1353 87.463 78.4245 87.8004 78.6816 87.8325C78.7319 87.8394 78.7831 87.8358 78.832 87.8219C78.8808 87.8081 78.9263 87.7844 78.9655 87.7522C79.0298 87.7094 79.0512 87.6665 79.0619 87.6719Z" fill="#FFBE9D"/>
<path d="M83.6845 78.3411C83.2721 76.9378 81.7777 76.2414 80.4172 75.8558C78.3443 75.2666 76.1054 75.0095 74.0807 75.754C72.056 76.4985 69.6243 77.8055 69.6243 80.039C68.4298 79.9426 67.7442 80.9871 67.2728 82.2833C66.9715 83.073 66.7909 83.9037 66.7372 84.7472C66.5872 87.6717 65.7677 91.7104 63.8716 93.8529C62.8003 95.0473 61.3167 95.8722 60.706 97.3613C60.1704 98.6521 60.4489 100.184 59.9508 101.491C59.5062 102.643 58.526 103.462 57.8083 104.464C57.0771 105.6 56.6467 106.903 56.5577 108.252C56.4687 109.6 56.7239 110.949 57.2994 112.171C57.8791 113.363 58.6952 114.423 59.698 115.289C60.7008 116.154 61.8693 116.807 63.1324 117.206C65.6344 117.967 68.3024 117.993 70.8187 117.281C72.7072 116.83 74.4689 115.956 75.9714 114.726C77.5089 113.471 78.5648 111.722 78.9603 109.777C79.3405 107.592 78.7299 105.369 78.2746 103.194C76.8499 96.3221 77.2569 95.9633 79.0567 89.5839C79.0995 89.4715 79.1209 89.3536 79.1531 89.2411C79.1852 89.1287 79.2013 89.0751 79.2227 88.9894C79.2738 88.7372 79.3007 88.4807 79.3031 88.2234C79.0402 88.3212 78.7549 88.3419 78.4807 88.283C78.2064 88.2242 77.9547 88.0883 77.7551 87.8914C77.555 87.6813 77.4155 87.4211 77.3513 87.1381C77.2872 86.8552 77.3009 86.5602 77.3909 86.2845C77.5172 85.9829 77.7055 85.7111 77.9436 85.4869C78.1817 85.2627 78.4641 85.091 78.7728 84.9829C79.3673 84.7365 80.0047 84.608 80.5886 84.3348C81.8259 83.7456 82.6829 82.5244 83.2667 81.2442C83.7467 80.357 83.8948 79.3277 83.6845 78.3411Z" fill="#263238"/>
<path d="M79.2762 87.8163C79.3894 87.9835 79.4828 88.1632 79.5547 88.3519C79.7154 88.6894 79.9297 89.1661 80.1653 89.7178L80.2082 89.8195H80.0957L79.5601 89.8677C79.1905 89.8677 78.8798 89.9374 78.5156 89.932C78.4839 89.9249 78.4545 89.9099 78.4301 89.8883C78.4058 89.8668 78.3873 89.8394 78.3763 89.8088C78.3604 89.7601 78.3604 89.7076 78.3763 89.6588C78.3887 89.5867 78.4048 89.5151 78.4245 89.4446L78.521 89.0643C78.5694 88.8106 78.6448 88.5628 78.7459 88.3251C78.736 88.5837 78.6982 88.8405 78.6334 89.0911L78.5585 89.4714C78.5317 89.5999 78.4835 89.7981 78.5585 89.782C78.8263 89.782 79.2066 89.7231 79.5601 89.7017L80.0957 89.6535L80.0261 89.7713C79.7958 89.2357 79.6029 88.7322 79.4904 88.384C79.3918 88.2062 79.3196 88.015 79.2762 87.8163Z" fill="#2597BC"/>
<path d="M60.9363 132.9L84.6914 132.177L95.0291 172.531L93.1276 218.82H80.5671L82.1044 173.517L72.9183 145.423L74.3324 220.615L61.638 220.802L60.3043 150.126C60.2454 148.16 59.6026 143.731 59.8436 141.781L60.9363 132.9Z" fill="#263238"/>
<path d="M76.0786 145.996C75.6897 146.021 75.2994 145.997 74.9162 145.927C74.1985 145.841 73.2183 145.691 72.1417 145.477C71.0651 145.262 70.1009 145.016 69.4046 144.818C69.0324 144.736 68.6723 144.606 68.3334 144.432C68.3334 144.352 70.0795 144.77 72.222 145.204C74.3645 145.637 76.0893 145.916 76.0786 145.996Z" fill="#455A64"/>
<path d="M92.9992 216.281C92.9992 216.356 90.155 216.421 86.6466 216.421C83.1382 216.421 80.2887 216.356 80.2887 216.281C80.2887 216.206 83.1329 216.142 86.6466 216.142C90.1603 216.142 92.9992 216.201 92.9992 216.281Z" fill="#455A64"/>
<path d="M74.2198 218.66C74.2198 218.74 71.456 218.799 68.0494 218.799C64.6428 218.799 61.8843 218.74 61.8843 218.66C61.8843 218.579 64.6481 218.52 68.0494 218.52C71.4506 218.52 74.2198 218.585 74.2198 218.66Z" fill="#455A64"/>
<path d="M72.581 218.467C72.506 218.467 72.1739 202.039 71.8364 181.776C71.499 161.513 71.3008 145.075 71.3704 145.075C71.4401 145.075 71.7829 161.497 72.115 181.771C72.4471 202.044 72.6613 218.467 72.581 218.467Z" fill="#455A64"/>
<path d="M91.3119 216.281C91.306 216.208 91.306 216.135 91.3119 216.062V215.419C91.3119 214.841 91.3547 214.01 91.3869 212.955C91.4619 210.813 91.569 207.701 91.7029 203.887C91.9921 196.217 92.3992 185.643 92.8438 173.972C92.8438 173.86 92.8438 173.753 92.8438 173.656V173.694C90.0317 162.445 87.4875 152.236 85.6396 144.85L83.4971 136.114C83.2507 135.091 83.0632 134.293 82.9293 133.736C82.865 133.473 82.8222 133.27 82.7847 133.114C82.7638 133.045 82.7512 132.973 82.7472 132.9C82.775 132.968 82.7965 133.038 82.8115 133.109C82.8543 133.259 82.9079 133.463 82.9829 133.72C83.1275 134.255 83.3364 135.069 83.6042 136.087C84.1398 138.155 84.8951 141.133 85.8378 144.802C87.7017 152.183 90.2728 162.365 93.1223 173.629V173.667C93.1223 173.763 93.1223 173.876 93.1223 173.983C92.6456 185.654 92.2117 196.222 91.8957 203.892C91.7297 207.711 91.5904 210.802 91.494 212.955C91.4404 214.026 91.3976 214.841 91.3708 215.419C91.3708 215.692 91.3387 215.906 91.3333 216.062C91.3341 216.136 91.3269 216.209 91.3119 216.281Z" fill="#455A64"/>
<path d="M87.2141 172.714C86.3119 173.01 85.3825 173.216 84.4395 173.329C83.2826 173.528 82.297 173.667 81.8524 173.688V173.581C81.9971 173.624 82.0721 173.651 82.0721 173.672C82.0721 173.694 81.981 173.672 81.831 173.672H81.5096L81.831 173.576C82.2488 173.453 83.2344 173.249 84.3913 173.04C85.3192 172.839 86.2647 172.729 87.2141 172.714Z" fill="#455A64"/>
<path d="M86.9945 174.251C86.159 174.289 85.3218 174.251 84.4931 174.138C83.6564 174.121 82.8229 174.03 82.0024 173.865C83.6764 173.728 85.3614 173.859 86.9945 174.251Z" fill="#455A64"/>
<path opacity="0.2" d="M60.8347 133.752C61.1161 134.113 61.4704 134.411 61.8747 134.626C62.2789 134.841 62.724 134.968 63.1808 135C64.1375 135.113 65.1052 135.095 66.0571 134.946C72.19 134.266 78.6872 133.639 84.6916 132.177C76.9196 132.611 68.7085 132.466 60.9365 132.9L60.8561 133.564" fill="black"/>
<g opacity="0.2">
<path opacity="0.2" d="M68.8422 144.705L73.2236 161.706L72.9183 145.423L68.8422 144.705Z" fill="black"/>
</g>
</svg>
